<?xml version="1.0" encoding="UTF-8"?>
<svg version="1.1" xmlns="http://www.w3.org/2000/svg" width="512" height="512">
<path d="M0 0 C1.25992828 -0.00623996 2.51985657 -0.01247993 3.81796449 -0.01890898 C7.28982766 -0.03550722 10.76124737 -0.02739991 14.2331115 -0.0149641 C17.9870921 -0.0058767 21.74099889 -0.01990148 25.4949646 -0.03088379 C32.838698 -0.04863389 40.18226752 -0.04484489 47.52600724 -0.03323323 C53.4958617 -0.02418601 59.46567035 -0.02298047 65.43552971 -0.02732849 C66.28638757 -0.02794142 67.13724542 -0.02855436 68.01388685 -0.02918586 C69.74257594 -0.03046481 71.47126502 -0.03176166 73.19995409 -0.03307623 C89.39463879 -0.04447156 105.58923281 -0.03138441 121.78390264 -0.00987476 C135.67055059 0.0079985 149.55706478 0.00488822 163.44371033 -0.0135498 C179.58346347 -0.03496947 195.72313721 -0.04337641 211.86290258 -0.03110075 C213.58479431 -0.0298266 215.30668605 -0.02856911 217.0285778 -0.02732849 C217.87570748 -0.02671139 218.72283716 -0.02609429 219.59563743 -0.02545848 C225.55673897 -0.02200911 231.51779002 -0.02782495 237.47888374 -0.0372467 C244.74567371 -0.04848011 252.0122909 -0.04539839 259.27906115 -0.02412373 C262.98455487 -0.01363176 266.68976082 -0.00945958 270.39525223 -0.02272034 C274.41617572 -0.03689203 278.43637645 -0.01993872 282.45727539 0 C283.6226507 -0.00892289 284.788026 -0.01784577 285.98871571 -0.02703905 C295.27059537 0.06222498 302.65435717 2.32481838 309.59483337 8.66809082 C315.60862176 15.71409662 317.34229642 23.47325681 317.16514587 32.50793457 C318.38330994 32.48473145 319.601474 32.46152832 320.85655212 32.43762207 C322.48024387 32.41885107 324.1039423 32.4006523 325.72764587 32.38293457 C326.52750916 32.36617676 327.32737244 32.34941895 328.151474 32.33215332 C333.68416803 32.28698847 339.32044361 32.33294921 343.90733337 35.83996582 C347.59856174 40.66401944 348.28337981 44.51833864 348.31040955 50.46252441 C348.31997932 51.89959244 348.31997932 51.89959244 348.32974243 53.36569214 C348.33141167 54.9017662 348.33141167 54.9017662 348.33311462 56.46887207 C348.33644302 57.53280182 348.33977142 58.59673157 348.34320068 59.69290161 C348.34825646 61.94048633 348.35060943 64.18807854 348.35044861 66.43566895 C348.35263351 69.8635299 348.37079942 73.29106808 348.38975525 76.71887207 C348.39268981 78.90637097 348.39467419 81.0938714 348.39561462 83.28137207 C348.40280014 84.30137299 348.40998566 85.3213739 348.41738892 86.37228394 C348.40007735 91.79848094 348.13550629 96.4229976 346.16514587 101.50793457 C342.14516711 105.32691439 339.61348218 106.636948 334.15733337 106.60559082 C333.17120056 106.60236816 332.18506775 106.59914551 331.16905212 106.5958252 C330.13651306 106.58744629 329.103974 106.57906738 328.04014587 106.57043457 C326.47973572 106.56366699 326.47973572 106.56366699 324.88780212 106.5567627 C322.313559 106.54495424 319.73934534 106.52701842 317.16514587 106.50793457 C317.16514587 112.77793457 317.16514587 119.04793457 317.16514587 125.50793457 C318.611474 125.46152832 320.05780212 125.41512207 321.54795837 125.36730957 C323.46200016 125.32977934 325.37606436 125.29338052 327.29014587 125.25793457 C328.241474 125.22441895 329.19280212 125.19090332 330.17295837 125.15637207 C336.21096001 125.07251094 339.55543621 125.51235958 344.16514587 129.50793457 C347.78538017 133.50267586 348.28421948 137.15685572 348.32627869 142.42492676 C348.33588623 143.3998407 348.34549377 144.37475464 348.35539246 145.37921143 C348.36176727 146.95113251 348.36176727 146.95113251 348.36827087 148.55480957 C348.37397095 149.63997864 348.37967102 150.72514771 348.38554382 151.84320068 C348.39498672 154.13963854 348.40152498 156.43608991 348.40538025 158.73254395 C348.4150708 162.23083401 348.44609546 165.72853271 348.47764587 169.22668457 C348.48417784 171.46105609 348.48942755 173.69543181 348.49327087 175.92980957 C348.50561768 176.96966003 348.51796448 178.0095105 348.53068542 179.08087158 C348.5127366 184.98699713 348.35648053 190.38638488 345.16514587 195.50793457 C339.27587943 199.93011786 334.42953631 200.01391427 327.22764587 199.75793457 C326.25762634 199.7398877 325.28760681 199.72184082 324.28819275 199.70324707 C321.91279693 199.65644124 319.53950743 199.59089842 317.16514587 199.50793457 C317.16791125 200.73561239 317.17067663 201.96329021 317.17352581 203.22817039 C317.23854581 232.3924395 317.28799066 261.55670183 317.31834186 290.72102614 C317.32209383 294.31324444 317.32597681 297.90546259 317.3299408 301.49768066 C317.33072773 302.21280511 317.33151466 302.92792955 317.33232544 303.66472442 C317.34536757 315.23307495 317.36901482 326.8013806 317.39660426 338.36970453 C317.4246917 350.24618035 317.44132918 362.12263271 317.44741136 373.99914038 C317.45115279 380.66733409 317.460501 387.3354461 317.48233604 394.00361252 C317.50272978 400.28261658 317.50897375 406.56147728 317.50446892 412.84051132 C317.50529282 415.14227579 317.51124111 417.44404516 317.5227623 419.74578094 C317.53775135 422.89538231 317.53407587 426.04444674 317.52590942 429.19406128 C317.53464795 430.09876046 317.54338647 431.00345963 317.5523898 431.93557394 C317.48352318 441.80385738 315.07108042 450.26315744 308.16514587 457.50793457 C300.43947861 464.34619411 292.82964752 464.80267877 282.83149719 464.78208923 C280.94990636 464.78994425 280.94990636 464.78994425 279.0303036 464.79795796 C275.55532074 464.81211351 272.08042743 464.81380171 268.60541987 464.81336105 C264.85473078 464.81501145 261.10407834 464.82808222 257.35340881 464.83955383 C249.15487326 464.86238683 240.95636362 464.87032277 232.75780058 464.87538028 C227.63555867 464.87863961 222.51332425 464.88516356 217.39108658 464.89238167 C203.20054809 464.91194623 189.01001657 464.928351 174.81946373 464.9312582 C173.45777154 464.93153956 173.45777154 464.93153956 172.06857041 464.9318266 C170.2283539 464.93219284 168.38813738 464.93255654 166.54792087 464.93291771 C165.17774656 464.93319192 165.17774656 464.93319192 163.77989197 464.93347168 C162.40803904 464.9337425 162.40803904 464.9337425 161.00847192 464.9340188 C146.1956162 464.93755897 131.38290599 464.9645722 116.57010071 465.00196957 C101.35083802 465.0400846 86.13164746 465.05941592 70.91233599 465.05971771 C62.37177097 465.0603016 53.83137948 465.06874922 45.29085922 465.09771538 C38.01709981 465.12227218 30.74357722 465.12948334 23.46978752 465.11446785 C19.76184797 465.10731613 16.05437563 465.10808029 12.34648895 465.13087845 C8.31755099 465.15541211 4.28966829 465.14078419 0.26069641 465.12266541 C-0.89866885 465.13586537 -2.05803411 465.14906534 -3.25253165 465.16266531 C-14.3545894 465.04902575 -23.77305412 461.56067421 -31.85829163 453.82824707 C-38.12090181 446.47648729 -40.95525339 439.19612026 -40.9690752 429.67178917 C-40.97142743 428.98131329 -40.97377966 428.29083742 -40.97620317 427.57943803 C-40.98288565 425.25459294 -40.98243518 422.92980384 -40.98202515 420.60494995 C-40.98532424 418.92570524 -40.9890499 417.24646133 -40.99316663 415.56721842 C-41.00318956 410.94371864 -41.00690389 406.32023185 -41.00955594 401.69672275 C-41.0134581 396.7135912 -41.02303648 391.73046995 -41.0317688 386.74734497 C-41.05153541 374.70881687 -41.06159955 362.67028793 -41.07049659 350.63174766 C-41.07487906 344.96368189 -41.08024596 339.29561706 -41.08548546 333.62755203 C-41.10249773 314.78761934 -41.11699225 295.94768723 -41.1242342 277.10774803 C-41.12614412 272.21819432 -41.12806445 267.32864061 -41.13002014 262.43908691 C-41.13050388 261.2238012 -41.13098762 260.00851548 -41.13148602 258.75640292 C-41.13978763 239.06634421 -41.16512677 219.37634622 -41.19760082 199.68631403 C-41.2306635 179.47473609 -41.24868224 159.26318902 -41.25187844 139.05158389 C-41.25404424 127.70198783 -41.26280318 116.35248033 -41.28833961 105.00291061 C-41.31003575 95.33778449 -41.31810234 85.67276845 -41.30837283 76.00762074 C-41.30382505 71.07676921 -41.30574231 66.14614484 -41.32513428 61.2153244 C-41.34274433 56.69856547 -41.34178572 52.1821998 -41.32623699 47.66543682 C-41.32385765 46.03415972 -41.3282014 44.40285554 -41.34006564 42.77161984 C-41.42576824 30.20678023 -39.69939932 20.02911274 -30.83485413 10.50793457 C-21.77569228 2.0735425 -12.09370595 -0.09277503 0 0 Z " fill="#DEDCFE" transform="translate(68.83485412597656,23.4920654296875)"/>
<path d="M0 0 C0 153.12 0 306.24 0 464 C-42.85646388 464 -42.85646388 464 -54.0234375 453.3203125 C-60.28604768 445.96855272 -63.12039926 438.68818569 -63.13422108 429.1638546 C-63.13657331 428.47337872 -63.13892554 427.78290285 -63.14134905 427.07150346 C-63.14803152 424.74665837 -63.14758105 422.42186927 -63.14717102 420.09701538 C-63.15047011 418.41777067 -63.15419578 416.73852676 -63.1583125 415.05928385 C-63.16833544 410.43578407 -63.17204977 405.81229728 -63.17470181 401.18878818 C-63.17860397 396.20565663 -63.18818236 391.22253538 -63.19691467 386.2394104 C-63.21668129 374.2008823 -63.22674542 362.16235336 -63.23564246 350.12381309 C-63.24002493 344.45574732 -63.24539184 338.78768249 -63.25063133 333.11961746 C-63.2676436 314.27968477 -63.28213812 295.43975266 -63.28938007 276.59981346 C-63.29128999 271.71025975 -63.29321032 266.82070604 -63.29516602 261.93115234 C-63.29564976 260.71586663 -63.2961335 259.50058091 -63.2966319 258.24846835 C-63.3049335 238.55840964 -63.33027265 218.86841165 -63.36274669 199.17837946 C-63.39580937 178.96680152 -63.41382811 158.75525445 -63.41702431 138.54364932 C-63.41919011 127.19405326 -63.42794905 115.84454576 -63.45348549 104.49497604 C-63.47518162 94.82984992 -63.48324822 85.16483388 -63.47351871 75.49968617 C-63.46897092 70.56883464 -63.47088818 65.63821027 -63.49028015 60.70738983 C-63.5078902 56.1906309 -63.50693159 51.67426523 -63.49138286 47.15750225 C-63.48900352 45.52622515 -63.49334727 43.89492097 -63.50521151 42.26368527 C-63.59091411 29.69884566 -61.86454519 19.52117817 -53 10 C-37.66690518 -4.27564001 -21.06562549 0 0 0 Z " fill="#5A5D8A" transform="translate(91,24)"/>
<path d="M0 0 C0.77294256 -0.00523668 1.54588511 -0.01047336 2.34225017 -0.01586872 C4.93458395 -0.03088102 7.52672056 -0.03157415 10.11909485 -0.03224182 C11.97698297 -0.03986263 13.83486793 -0.04828999 15.69274902 -0.0574646 C20.74254825 -0.07942772 25.79228692 -0.08821126 30.84212852 -0.09329104 C33.99811061 -0.0969333 37.15407682 -0.10317276 40.31005287 -0.11029243 C51.32355573 -0.13479585 62.33701144 -0.14784019 73.35054016 -0.15138245 C83.61046338 -0.15501561 93.87008705 -0.1848931 104.12991875 -0.22678703 C112.94196715 -0.26150542 121.75391639 -0.27693118 130.56603271 -0.27762848 C135.82743851 -0.27842094 141.08853945 -0.28714503 146.3498745 -0.31562614 C151.30186922 -0.34183227 156.25330692 -0.34399766 161.20533943 -0.3279705 C163.01892691 -0.32615789 164.83254659 -0.33282979 166.64606476 -0.34878922 C184.46038646 -0.49595098 184.46038646 -0.49595098 191.3664093 5.27415466 C193.48750305 7.37181091 193.48750305 7.37181091 194.8039093 9.33665466 C195.25637024 9.98763123 195.70883118 10.63860779 196.17500305 11.30931091 C199.23932169 16.36292493 199.66321119 20.32693126 199.65693665 26.21434021 C199.66365387 27.11730331 199.67037109 28.02026642 199.67729187 28.95059204 C199.69629681 31.93740844 199.7001978 34.92400029 199.7023468 37.91087341 C199.70877467 39.99109998 199.71550302 42.07132563 199.72251892 44.15155029 C199.73449912 48.515275 199.73819914 52.87892052 199.73701477 57.24266052 C199.73681193 62.81998007 199.76407531 68.3967881 199.79855919 73.97398663 C199.8208601 78.27298285 199.82485127 82.57185679 199.82379532 86.87090492 C199.82614796 88.92609731 199.83495238 90.98129323 199.85046005 93.03642845 C199.87017755 95.92030857 199.86425856 98.80309667 199.85224915 101.68699646 C199.86348816 102.52732422 199.87472717 103.36765198 199.88630676 104.23344421 C199.81320156 111.18339692 197.90704732 117.12504452 193.5070343 122.57884216 C192.57117493 123.35614685 192.57117493 123.35614685 191.6164093 124.14915466 C191.00281555 124.68282654 190.3892218 125.21649841 189.7570343 125.76634216 C183.91653348 129.45005674 178.31201148 130.72165118 171.48631287 130.66183472 C170.73515949 130.66722025 169.98400612 130.67260579 169.21009052 130.67815453 C166.71531355 130.69236091 164.22107269 130.68534876 161.72627258 130.6782074 C159.92852861 130.68391484 158.13078826 130.69088055 156.33305359 130.69900513 C151.46519004 130.71691121 146.59750701 130.71577282 141.72962046 130.71006274 C137.65918082 130.7069669 133.58877566 130.71306782 129.51834095 130.71910149 C119.91184093 130.73313702 110.30542987 130.73159378 100.69892883 130.72019958 C90.80365001 130.70872189 80.90864234 130.72279044 71.01339924 130.74959606 C62.50357858 130.77178162 53.99384284 130.77838392 45.48399532 130.77251965 C40.40767668 130.7691554 35.33153178 130.77152965 30.25523758 130.78877068 C25.47968798 130.80428305 20.7045387 130.80023675 15.92900467 130.78146553 C14.18196182 130.77779138 12.43488902 130.7808537 10.68787384 130.79135132 C0.61964623 130.84720517 -8.71185183 130.85748426 -17.03593445 124.41477966 C-17.54253601 123.79087341 -18.04913757 123.16696716 -18.5710907 122.52415466 C-19.09573914 121.91056091 -19.62038757 121.29696716 -20.16093445 120.66477966 C-24.11312527 114.24902161 -25.07997675 108.44619467 -25.05351257 101.07933044 C-25.06198212 100.19689667 -25.07045166 99.31446289 -25.07917786 98.4052887 C-25.10243364 95.5098652 -25.10357273 92.61497669 -25.1023407 89.71946716 C-25.10944922 87.6921925 -25.11714922 85.66491983 -25.12541199 83.63764954 C-25.13883064 79.39614769 -25.14043734 75.1548319 -25.13456726 70.91331482 C-25.12867409 65.49748714 -25.15925962 60.0825568 -25.19968414 54.66690254 C-25.22562533 50.48194124 -25.22843272 46.29719416 -25.22479248 42.11216354 C-25.22647775 40.11640544 -25.2360627 38.12063681 -25.25393677 36.12495804 C-25.41953851 15.35039431 -25.41953851 15.35039431 -19.6335907 8.27415466 C-17.11141435 5.95457778 -14.58635279 4.01176417 -11.6335907 2.27415466 C-11.0905086 1.92596145 -10.54742651 1.57776823 -9.98788738 1.2190237 C-6.68427826 -0.10684062 -3.50530106 -0.0117335 0 0 Z " fill="#FBB63E" transform="translate(150.6335906982422,314.72584533691406)"/>
<path d="M0 0 C7.06170054 4.81053225 11.44907689 11.54313691 13.74609375 19.71484375 C13.95676292 22.45997816 14.07546914 25.10908415 14.0942688 27.85418701 C14.1072667 28.65767932 14.1202646 29.46117163 14.13365638 30.28901219 C14.17431559 32.97356007 14.20084038 35.65804839 14.22705078 38.34277344 C14.25269188 40.27189954 14.27896322 42.20101735 14.30581665 44.13012695 C14.53808137 61.78252275 14.65105911 79.43716202 14.73935127 97.09080124 C14.80559533 110.11288268 14.92425312 123.13215134 15.11437333 136.1530273 C15.24386745 145.33730265 15.31055089 154.52082134 15.33285034 163.70597386 C15.34784773 169.17547578 15.38910849 174.64158021 15.49890518 180.11006927 C15.97223518 204.78896923 15.87085064 223.15790985 -0.15883255 242.96425629 C-3.93249578 247.91863606 -6.88466175 253.36324923 -9.94140625 258.77734375 C-11.04744828 260.68607411 -12.15515809 262.59384057 -13.265625 264.5 C-13.72412842 265.292854 -14.18263184 266.08570801 -14.6550293 266.90258789 C-16.70214397 269.22290125 -18.23544408 269.40614825 -21.25390625 269.71484375 C-25.12959452 264.10649484 -28.81252715 258.38911352 -32.15989971 252.44724274 C-34.55659155 248.27111206 -37.16033091 244.52334368 -40.195755 240.78308105 C-55.24402517 221.17320959 -54.44565813 201.50885216 -53.97500396 177.62788582 C-53.88485272 172.20768931 -53.8854816 166.78740665 -53.87483215 161.36657715 C-53.84467409 152.28843339 -53.75643802 143.21248491 -53.62573242 134.13525391 C-53.44181516 121.35267307 -53.36848086 108.57113453 -53.31476247 95.7874403 C-53.26851475 85.81517657 -53.19001974 75.84312822 -53.109375 65.87109375 C-53.10132898 64.8089887 -53.09328296 63.74688366 -53.08499312 62.65259361 C-53.03743489 56.54518607 -52.97396838 50.43834029 -52.88592339 44.33137703 C-52.86129442 42.48762409 -52.84144407 40.64379983 -52.82685471 38.79994011 C-52.70695838 24.44839206 -51.72480135 13.8863392 -41.6953125 3.02734375 C-30.01763834 -8.17426216 -13.39175968 -7.63585604 0 0 Z " fill="#65B9FF" transform="translate(470.25390625,218.28515625)"/>
<path d="M0 0 C27.39 0 54.78 0 83 0 C83.1209091 39.46114861 83.1209091 39.46114861 83.14648438 55.96875 C83.16430087 67.37699417 83.18527109 78.78517198 83.22631836 90.19335938 C83.25619567 98.50105311 83.27556905 106.80869313 83.28226548 115.1164391 C83.28618058 119.51640169 83.29539854 123.91621058 83.31719017 128.31612396 C83.337529 132.45618705 83.3438391 136.5960329 83.33932304 140.7361412 C83.34014942 142.25672714 83.34613065 143.77732023 83.35761642 145.29786301 C83.37252034 147.37240696 83.368962 149.44612834 83.36076355 151.52069092 C83.36352893 152.68215008 83.36629431 153.84360924 83.36914349 155.04026413 C82.96595885 158.27293675 82.18637897 159.63960642 80 162 C76.31795497 161.98571005 74.0528079 161.82855082 71.11572266 159.51708984 C69.10270035 157.46741954 67.19905839 155.35413957 65.3125 153.1875 C63.90749817 151.63819009 62.50123709 150.09002125 61.09375 148.54296875 C60.40410156 147.7751709 59.71445312 147.00737305 59.00390625 146.21630859 C56.16927755 143.08122583 53.26819343 140.02077811 50.3125 137 C49.40113281 136.05125 48.48976563 135.1025 47.55078125 134.125 C44.85642821 131.88039349 43.4978434 131.00567832 40 131 C37.94594963 132.10765065 37.94594963 132.10765065 36.1875 133.9375 C35.50171875 134.5871875 34.8159375 135.236875 34.109375 135.90625 C33.41328125 136.5971875 32.7171875 137.288125 32 138 C30.98679687 138.97453125 30.98679687 138.97453125 29.953125 139.96875 C26.63184242 143.21279345 23.4744027 146.55108126 20.4375 150.0625 C19.29276602 151.37595894 18.14693901 152.6884661 17 154 C16.42378906 154.66773438 15.84757812 155.33546875 15.25390625 156.0234375 C12.38589348 159.15334008 10.37362023 161.3129514 6.0625 161.9375 C5.051875 161.958125 4.04125 161.97875 3 162 C-0.17949382 158.56744924 -0.37173205 156.12746213 -0.36076355 151.52069092 C-0.36332682 150.87207195 -0.3658901 150.22345297 -0.36853105 149.55517888 C-0.37346873 147.38386298 -0.35697723 145.21324392 -0.34057617 143.04199219 C-0.33972989 141.4847719 -0.34020506 139.92755041 -0.34190369 138.37033081 C-0.34276503 134.143325 -0.32511679 129.91657416 -0.30418181 125.68962765 C-0.28543822 121.27204109 -0.2836664 116.8544488 -0.28010559 112.43682861 C-0.27077831 104.07165392 -0.24615528 95.70659674 -0.21605712 87.34147382 C-0.17626715 76.03754522 -0.16006376 64.73358453 -0.14255047 53.42960358 C-0.11433468 35.61964769 -0.05456972 17.80993978 0 0 Z " fill="#E73E63" transform="translate(244,24)"/>
<path d="M0 0 C1.14726563 0.01804687 2.29453125 0.03609375 3.4765625 0.0546875 C6.27694424 0.10136053 9.07550563 0.16681502 11.875 0.25 C9.21089838 2.02606774 7.66938264 2.67668373 4.6875 3.5 C-4.43364343 6.45139438 -11.0399679 12.96870514 -15.375 21.4375 C-17.618312 26.09880813 -18.25164334 29.73383409 -18.25922108 34.92906952 C-18.26157331 35.61471521 -18.26392554 36.30036089 -18.26634905 37.00678372 C-18.273045 39.32122929 -18.27258064 41.63561879 -18.27217102 43.95007324 C-18.27546929 45.61949261 -18.27919478 47.28891118 -18.2833125 48.95832872 C-18.29334509 53.55935409 -18.29705133 58.16036642 -18.29970181 62.76140118 C-18.30360121 67.71866601 -18.3131799 72.67592048 -18.32191467 77.63317871 C-18.34169089 89.6128041 -18.35174742 101.59243034 -18.36064246 113.57206798 C-18.36502406 119.21211347 -18.37039125 124.85215801 -18.37563133 130.49220276 C-18.39264587 149.23944656 -18.40713979 167.98668978 -18.41438007 186.73394012 C-18.41629001 191.60062155 -18.41821033 196.46730297 -18.42016602 201.33398438 C-18.42064976 202.54359205 -18.4211335 203.75319973 -18.4216319 204.99946219 C-18.42993119 224.59191118 -18.45526542 244.18429909 -18.48774669 263.77672142 C-18.52081601 283.88770143 -18.53882878 303.99865041 -18.54202431 324.10965776 C-18.54418968 335.40285051 -18.55294217 346.69595423 -18.57848549 357.98912048 C-18.60019083 367.60776319 -18.60824375 377.22629526 -18.59851871 386.84495968 C-18.59397336 391.7516254 -18.59587395 396.65806284 -18.61528015 401.56469727 C-18.63290794 406.06057748 -18.63191716 410.55606279 -18.61638286 415.05194718 C-18.61400619 416.67452373 -18.61833341 418.2971276 -18.63021151 419.91966242 C-18.71497687 432.26786685 -17.41992829 443.70581448 -8.41015625 453.0234375 C-3.73060958 457.41572487 0.95731432 459.90294797 6.875 462.25 C8.21168712 462.90991649 9.54550692 463.57570749 10.875 464.25 C-17.77673567 465.37952621 -17.77673567 465.37952621 -30 455.625 C-36.18773823 449.70727217 -40.89376142 441.8179793 -41.25380117 433.14860475 C-41.25558974 431.9161372 -41.25737831 430.68366965 -41.25922108 429.4138546 C-41.26157331 428.72337872 -41.26392554 428.03290285 -41.26634905 427.32150346 C-41.27303152 424.99665837 -41.27258105 422.67186927 -41.27217102 420.34701538 C-41.27547011 418.66777067 -41.27919578 416.98852676 -41.2833125 415.30928385 C-41.29333544 410.68578407 -41.29704977 406.06229728 -41.29970181 401.43878818 C-41.30360397 396.45565663 -41.31318236 391.47253538 -41.32191467 386.4894104 C-41.34168129 374.4508823 -41.35174542 362.41235336 -41.36064246 350.37381309 C-41.36502493 344.70574732 -41.37039184 339.03768249 -41.37563133 333.36961746 C-41.3926436 314.52968477 -41.40713812 295.68975266 -41.41438007 276.84981346 C-41.41628999 271.96025975 -41.41821032 267.07070604 -41.42016602 262.18115234 C-41.42064976 260.96586663 -41.4211335 259.75058091 -41.4216319 258.49846835 C-41.4299335 238.80840964 -41.45527265 219.11841165 -41.48774669 199.42837946 C-41.52080937 179.21680152 -41.53882811 159.00525445 -41.54202431 138.79364932 C-41.54419011 127.44405326 -41.55294905 116.09454576 -41.57848549 104.74497604 C-41.60018162 95.07984992 -41.60824822 85.41483388 -41.59851871 75.74968617 C-41.59397092 70.81883464 -41.59588818 65.88821027 -41.61528015 60.95738983 C-41.6328902 56.4406309 -41.63193159 51.92426523 -41.61638286 47.40750225 C-41.61400352 45.77622515 -41.61834727 44.14492097 -41.63021151 42.51368527 C-41.71591411 29.94884566 -39.98954519 19.77117817 -31.125 10.25 C-21.92843433 1.68768024 -12.28258585 -0.37133399 0 0 Z " fill="#312E4B" transform="translate(69.125,23.75)"/>
<path d="M0 0 C10.89 0 21.78 0 33 0 C33 53.13 33 106.26 33 161 C22.11 161 11.22 161 0 161 C0 107.87 0 54.74 0 0 Z " fill="#3E7FFF" transform="translate(418,275)"/>
<path d="M0 0 C7.29839793 4.97177393 10.99419617 11.459151 13.74609375 19.71484375 C13.74609375 27.63484375 13.74609375 35.55484375 13.74609375 43.71484375 C-8.03390625 43.71484375 -29.81390625 43.71484375 -52.25390625 43.71484375 C-52.25390625 14.45920465 -52.25390625 14.45920465 -41.6953125 3.02734375 C-30.01763834 -8.17426216 -13.39175968 -7.63585604 0 0 Z " fill="#302D4A" transform="translate(470.25390625,218.28515625)"/>
<path d="M0 0 C1.40185547 0.00966797 1.40185547 0.00966797 2.83203125 0.01953125 C4.28416016 0.04466797 4.28416016 0.04466797 5.765625 0.0703125 C6.74917969 0.07933594 7.73273438 0.08835937 8.74609375 0.09765625 C11.16951907 0.12118465 13.59244722 0.15405882 16.015625 0.1953125 C14.34512379 1.30897997 12.66035304 2.40421773 10.9296875 3.421875 C4.30965868 7.46619295 0.48023648 11.80147806 -1.984375 19.1953125 C-2.09632713 22.01765529 -2.15206399 24.81593709 -2.16137695 27.63891602 C-2.16794815 28.50111252 -2.17451935 29.36330902 -2.18128967 30.25163269 C-2.20102106 33.10916228 -2.21268759 35.9666392 -2.22265625 38.82421875 C-2.22673178 39.80191664 -2.2308073 40.77961452 -2.23500633 41.78693962 C-2.25587068 46.96611189 -2.2701684 52.14525768 -2.27954102 57.32446289 C-2.29058024 62.6584335 -2.32495042 67.99198404 -2.36471272 73.32580662 C-2.39094323 77.43953696 -2.39923877 81.55316842 -2.40282249 85.66697502 C-2.4076752 87.63203695 -2.41925138 89.59709486 -2.43786049 91.56207466 C-2.90577759 107.58774245 -2.90577759 107.58774245 4.015625 121.59765625 C4.675625 122.10425781 5.335625 122.61085938 6.015625 123.1328125 C6.675625 123.65746094 7.335625 124.18210937 8.015625 124.72265625 C8.675625 125.20863281 9.335625 125.69460938 10.015625 126.1953125 C10.758125 126.75347656 11.500625 127.31164062 12.265625 127.88671875 C12.843125 128.31855469 13.420625 128.75039063 14.015625 129.1953125 C10.84945901 129.34231306 7.68418518 129.42993356 4.515625 129.5078125 C3.1853125 129.5706543 3.1853125 129.5706543 1.828125 129.63476562 C-4.7515662 129.75571583 -8.88307344 128.37806382 -13.984375 124.1953125 C-19.9580712 118.2216163 -22.29139687 111.74146694 -22.41317749 103.47259521 C-22.40878159 102.24890228 -22.40878159 102.24890228 -22.40429688 101.00048828 C-22.41276642 100.1180545 -22.42123596 99.23562073 -22.42996216 98.32644653 C-22.45321794 95.43102304 -22.45435703 92.53613453 -22.453125 89.640625 C-22.46023352 87.61335033 -22.46793352 85.58607766 -22.47619629 83.55880737 C-22.48961495 79.31730553 -22.49122164 75.07598974 -22.48535156 70.83447266 C-22.47945839 65.41864498 -22.51004392 60.00371463 -22.55046844 54.58806038 C-22.57640963 50.40309907 -22.57921702 46.218352 -22.57557678 42.03332138 C-22.57726205 40.03756328 -22.586847 38.04179465 -22.60472107 36.04611588 C-22.77032281 15.27155215 -22.77032281 15.27155215 -16.984375 8.1953125 C-11.9665165 3.58052474 -6.98923746 -0.0852346 0 0 Z " fill="#FC982E" transform="translate(147.984375,314.8046875)"/>
<path d="M0 0 C22 0 22 0 28 4 C31.6202343 7.99474129 32.1190736 11.64892115 32.16113281 16.91699219 C32.17074036 17.89190613 32.1803479 18.86682007 32.19024658 19.87127686 C32.19449646 20.91922424 32.19874634 21.96717163 32.203125 23.046875 C32.20882507 24.13204407 32.21452515 25.21721313 32.22039795 26.33526611 C32.22984084 28.63170397 32.23637911 30.92815534 32.24023438 33.22460938 C32.24992493 36.72289944 32.28094959 40.22059814 32.3125 43.71875 C32.31903196 45.95312152 32.32428167 48.18749724 32.328125 50.421875 C32.3404718 51.46172546 32.3528186 52.50157593 32.36553955 53.57293701 C32.34681497 59.73432956 31.97210039 64.53272821 29 70 C22 74 22 74 0 74 C0 49.58 0 25.16 0 0 Z " fill="#46CC6B" transform="translate(385,149)"/>
<path d="M0 0 C1.19302734 -0.01836914 1.19302734 -0.01836914 2.41015625 -0.03710938 C7.91282038 -0.05066273 13.56282602 0.03738492 18.1171875 3.51953125 C21.80841586 8.34358487 22.49323393 12.19790407 22.52026367 18.14208984 C22.52664352 19.10013519 22.53302338 20.05818054 22.53959656 21.04525757 C22.54070938 22.06930695 22.5418222 23.09335632 22.54296875 24.1484375 C22.54796135 25.74433212 22.54796135 25.74433212 22.55305481 27.37246704 C22.55811058 29.62005176 22.56046355 31.86764397 22.56030273 34.11523438 C22.56248763 37.54309533 22.58065355 40.97063351 22.59960938 44.3984375 C22.60254393 46.5859364 22.60452831 48.77343683 22.60546875 50.9609375 C22.61265427 51.98093842 22.61983978 53.00093933 22.62724304 54.05184937 C22.60993148 59.47804637 22.34536042 64.10256303 20.375 69.1875 C16.26568065 73.09135339 13.72123063 74.31577599 8.1484375 74.28515625 C6.6015625 74.28032227 6.6015625 74.28032227 5.0234375 74.27539062 C3.40308594 74.26282227 3.40308594 74.26282227 1.75 74.25 C0.11804688 74.24323242 0.11804688 74.24323242 -1.546875 74.23632812 C-4.23963789 74.22451776 -6.93229188 74.20804778 -9.625 74.1875 C-9.64812484 64.68675675 -9.6659158 55.18602312 -9.67681217 45.68525791 C-9.68204069 41.27412996 -9.68913777 36.8630212 -9.70043945 32.4519043 C-9.71126944 28.19848885 -9.71727707 23.94509191 -9.71987724 19.69166374 C-9.72173129 18.06528367 -9.72535152 16.43890466 -9.73073006 14.81253242 C-9.73794198 12.54239807 -9.73899088 10.27234115 -9.73852539 8.00219727 C-9.740746 6.70758072 -9.74296661 5.41296417 -9.74525452 4.07911682 C-9.50118582 -1.78971183 -4.71044453 0.00370901 0 0 Z " fill="#63B7FF" transform="translate(394.625,55.8125)"/>
<path d="M0 0 C21.78 0 43.56 0 66 0 C64.37851828 4.05370429 62.7294921 7.29256698 60.47265625 10.98046875 C60.127686 11.54689087 59.78271576 12.11331299 59.42729187 12.69689941 C58.30976806 14.52962658 57.1866762 16.35884682 56.0625 18.1875 C54.90252537 20.0783542 53.74301596 21.96949259 52.58377075 23.86079407 C51.81266839 25.11881165 51.04108329 26.37653347 50.26901245 27.63395691 C48.00173241 31.3344062 45.78255682 35.05793712 43.60546875 38.8125 C43.1148999 39.64885986 42.62433105 40.48521973 42.11889648 41.34692383 C41.22929594 42.86798685 40.35175983 44.39619332 39.48852539 45.93237305 C36.61959176 50.78798885 36.61959176 50.78798885 33.203125 51.95703125 C32.47609375 51.97121094 31.7490625 51.98539062 31 52 C27.11549136 46.3788875 23.52619801 40.61174874 20.04150391 34.73535156 C17.36287509 30.2338436 14.62725492 25.76984302 11.86328125 21.3203125 C11.12809149 20.13468484 10.3929027 18.94905658 9.65771484 17.76342773 C8.54923213 15.97632007 7.43922047 14.19025233 6.32452393 12.40701294 C5.27365407 10.72559178 4.2285062 9.04059858 3.18359375 7.35546875 C2.57056396 6.37215576 1.95753418 5.38884277 1.32592773 4.37573242 C0 2 0 2 0 0 Z " fill="#FEAE93" transform="translate(418,436)"/>
<path d="M0 0 C0.82966278 0.00404846 1.65932556 0.00809692 2.51412964 0.01226807 C3.82407143 0.00701111 3.82407143 0.00701111 5.16047668 0.00164795 C8.05716827 -0.00717917 10.95361706 -0.00131626 13.85031128 0.00543213 C15.85808865 0.00408564 17.86586571 0.00214524 19.87364197 -0.00036621 C24.0861928 -0.0033189 28.29865894 0.00098438 32.51119995 0.01031494 C37.91639172 0.02170221 43.32138473 0.01515549 48.72656918 0.00317001 C52.87433881 -0.00405091 57.02206119 -0.00175945 61.16983223 0.0034256 C63.16298 0.00476183 65.15613203 0.0031153 67.14927483 -0.00153351 C69.93376937 -0.00660171 72.71794049 0.00111602 75.50241089 0.01226807 C76.33004944 0.0082196 77.15768799 0.00417114 78.01040649 0 C81.88671138 0.02882107 83.77235701 0.07065012 87.07296753 2.27105713 C87.45269453 5.24558531 87.64496772 7.31218275 86.07846069 9.9382019 C82.85096278 12.08320421 79.35820734 11.68710993 75.6100769 11.65924072 C74.74638992 11.66449768 73.88270294 11.66975464 72.99284363 11.6751709 C70.13395172 11.68838971 67.27561524 11.67962619 64.41671753 11.66949463 C62.43278903 11.67151482 60.44886125 11.6744258 58.4649353 11.67819214 C54.30539892 11.68261804 50.1460557 11.67617583 45.98654175 11.66217041 C40.6496722 11.64507843 35.31325522 11.65491818 29.97640228 11.6728878 C25.87922748 11.68371842 21.78216031 11.68028261 17.6849823 11.67250443 C15.71695401 11.67050042 13.748916 11.67296869 11.78089905 11.67994308 C9.03228802 11.68754566 6.28441415 11.67597021 3.53585815 11.65924072 C2.310783 11.66834976 2.310783 11.66834976 1.06095886 11.67764282 C-4.40721973 11.61585425 -4.40721973 11.61585425 -6.93643188 9.9382019 C-8.47860912 7.34277368 -8.23998833 5.21284225 -7.92703247 2.27105713 C-5.32961958 -0.32635576 -3.53863919 0.02640863 0 0 Z " fill="#E87F21" transform="translate(164.92703247070313,386.72894287109375)"/>
<path d="M0 0 C1.13218712 -0.01029488 1.13218712 -0.01029488 2.2872467 -0.02079773 C4.78421805 -0.03911052 7.28056374 -0.03522192 9.77758789 -0.02954102 C11.51249904 -0.03410084 13.24740837 -0.03940581 14.98231506 -0.04542542 C18.61979506 -0.05436542 22.25705562 -0.05192354 25.89453125 -0.04199219 C30.55658778 -0.03050403 35.21788673 -0.05070674 39.87984371 -0.07990932 C43.46322952 -0.09825413 47.04643323 -0.09798228 50.6298542 -0.0922718 C52.34865951 -0.09211836 54.067477 -0.09818153 55.78623772 -0.11056328 C58.19000653 -0.12543874 60.59236901 -0.11482286 62.99609375 -0.09765625 C64.0614888 -0.1121582 64.0614888 -0.1121582 65.14840698 -0.12695312 C68.54037082 -0.07621746 70.30066358 0.20677939 73.04347229 2.27134705 C74.56274414 4.40405273 74.56274414 4.40405273 74.43774414 7.02905273 C73.56274414 9.40405273 73.56274414 9.40405273 71.56274414 11.40405273 C69.04954893 11.60755876 66.64606578 11.68728271 64.13134766 11.67871094 C62.98233978 11.68637733 62.98233978 11.68637733 61.81011963 11.69419861 C59.27055105 11.70813214 56.73125272 11.70713502 54.19165039 11.70483398 C52.43049518 11.70871894 50.66934091 11.71305319 48.90818787 11.71781921 C45.21350062 11.72528957 41.51890892 11.72498433 37.82421875 11.71972656 C33.08481963 11.71393168 28.34581127 11.7308593 23.60647678 11.75407124 C19.96825364 11.76878925 16.33012501 11.76968291 12.69187737 11.76656151 C10.9443376 11.76707572 9.19679268 11.7723322 7.44928169 11.78237343 C5.00710651 11.79468296 2.56569768 11.7879796 0.12353516 11.77636719 C-0.60124527 11.78401093 -1.3260257 11.79165466 -2.07276917 11.79953003 C-4.98779616 11.76882674 -6.95889031 11.73955687 -9.3863678 10.03703308 C-10.90258344 7.68097782 -10.84858531 6.14624908 -10.43725586 3.40405273 C-7.89685831 -0.5099325 -4.22767733 -0.02671886 0 0 Z " fill="#E87F21" transform="translate(167.437255859375,332.595947265625)"/>
<path d="M0 0 C1.07618088 0.00371613 1.07618088 0.00371613 2.17410278 0.00750732 C2.93035446 0.00239639 3.68660614 -0.00271454 4.46577454 -0.00798035 C6.97287853 -0.02191329 9.47970875 -0.0209168 11.98684692 -0.01861572 C13.7255819 -0.02250071 15.46431592 -0.02683497 17.20304871 -0.03160095 C20.8506579 -0.03907118 24.49817031 -0.03876616 28.14578247 -0.0335083 C32.8246494 -0.02771347 37.5031205 -0.04464096 42.18192196 -0.06785297 C45.77382226 -0.08257145 49.36562684 -0.08346458 52.95755196 -0.08034325 C54.68276313 -0.08085744 56.40797952 -0.08611351 58.13316154 -0.09615517 C60.54420702 -0.10846561 62.95447637 -0.10176083 65.36550903 -0.09014893 C66.08093872 -0.09779266 66.79636841 -0.1054364 67.53347778 -0.11331177 C70.39611013 -0.08277451 72.38399412 -0.0130931 74.81303406 1.57887268 C76.57448773 4.51608477 75.60031046 7.10111987 74.83450317 10.28216553 C71.86674554 11.76604434 68.84130794 11.4381604 65.58670044 11.44329834 C64.84020233 11.44826324 64.09370422 11.45322815 63.32458496 11.45834351 C60.85001715 11.47297362 58.37551341 11.47976798 55.90090942 11.48529053 C54.18459572 11.49104062 52.46828204 11.49679837 50.75196838 11.50256348 C47.15146586 11.51307543 43.55098569 11.51891704 39.95046997 11.5223999 C35.33216216 11.52788966 30.71414843 11.55192699 26.09593296 11.58037186 C22.55037059 11.59897433 19.00487945 11.60420252 15.45927238 11.60573578 C13.7563815 11.6087675 12.05349202 11.61681346 10.35064888 11.62992096 C7.97077005 11.64693437 5.59161504 11.64511325 3.21170044 11.63861084 C2.50562149 11.64782562 1.79954254 11.65704041 1.07206726 11.66653442 C-1.78410263 11.64202993 -3.7139083 11.59171631 -6.10704041 9.95129395 C-7.74498875 7.36833817 -7.48198702 5.25717334 -7.16549683 2.28216553 C-4.71234005 -0.17099125 -3.34882944 0.03623823 0 0 Z " fill="#E87F21" transform="translate(243.16549682617188,359.71783447265625)"/>
<path d="M0 0 C3.96 0 7.92 0 12 0 C12 24.42 12 48.84 12 74 C8.04 74 4.08 74 0 74 C0 49.58 0 25.16 0 0 Z " fill="#1B9F60" transform="translate(385,149)"/>
<path d="M0 0 C0.70967422 0.00404846 1.41934845 0.00809692 2.15052795 0.01226807 C2.89863235 0.00876343 3.64673676 0.00525879 4.41751099 0.00164795 C6.89696967 -0.00717377 9.37614436 -0.00131876 11.85560608 0.00543213 C13.57431595 0.0040856 15.29302545 0.00214518 17.01173401 -0.00036621 C20.61646648 -0.00331807 24.22109994 0.00098212 27.82582092 0.01031494 C32.45314668 0.02170954 37.08024044 0.01515039 41.70755768 0.00317001 C45.2573777 -0.00404694 48.80714245 -0.00176142 52.35696411 0.0034256 C54.06345649 0.00476255 55.76995385 0.00311278 57.47644043 -0.00153351 C59.85882413 -0.00659609 62.24082883 0.00110747 64.6231842 0.01226807 C65.33285843 0.0082196 66.04253265 0.00417114 66.77371216 0 C71.65832702 0.04252807 71.65832702 0.04252807 73.88685608 2.27105713 C74.43458265 7.4196869 74.43458265 7.4196869 72.81494141 9.93721008 C69.8532821 11.98608233 67.29359499 11.66043224 63.72499084 11.67510986 C62.63669479 11.68540474 62.63669479 11.68540474 61.52641296 11.69590759 C59.12683062 11.71421667 56.72789957 11.71033235 54.32826233 11.70465088 C52.66061184 11.7092109 50.99296324 11.71451594 49.32531738 11.72053528 C45.82906972 11.72947455 42.33305037 11.72703427 38.83680725 11.71710205 C34.3563416 11.7056142 29.87666428 11.72581633 25.39630222 11.75501919 C21.95188388 11.77336643 18.50765494 11.77309167 15.0632 11.76738167 C13.41138033 11.76722825 11.75954798 11.77328912 10.10777473 11.78567314 C7.79738577 11.80055332 5.48845907 11.78992965 3.17811584 11.77276611 C1.20646202 11.77251686 1.20646202 11.77251686 -0.80502319 11.77226257 C-4.11314392 11.27105713 -4.11314392 11.27105713 -6.57666016 9.40376282 C-8.11314392 7.27105713 -8.11314392 7.27105713 -7.98814392 4.64605713 C-6.3492888 0.19773609 -4.45784463 0.03881238 0 0 Z " fill="#E88122" transform="translate(245.11314392089844,413.72894287109375)"/>
<path d="M0 0 C21.78 0 43.56 0 66 0 C66 4.29 66 8.58 66 13 C44.22 13 22.44 13 0 13 C0 8.71 0 4.42 0 0 Z " fill="#DCDBFD" transform="translate(418,262)"/>
<path d="M0 0 C3.63 0 7.26 0 11 0 C11 24.09 11 48.18 11 73 C7.37 73 3.74 73 0 73 C0 48.91 0 24.82 0 0 Z " fill="#3F80FF" transform="translate(385,57)"/>
<path d="M0 0 C1.15136948 -0.00637985 2.30273895 -0.0127597 3.48899841 -0.01933289 C4.73794388 -0.02044571 5.98688934 -0.02155853 7.27368164 -0.02270508 C8.55110733 -0.02603348 9.82853302 -0.02936188 11.14466858 -0.03279114 C13.85071284 -0.03786194 16.5566567 -0.04063103 19.26269531 -0.04003906 C22.73080969 -0.03993743 26.19871939 -0.05359087 29.66678524 -0.07081127 C32.97324313 -0.08460107 36.27969888 -0.08401991 39.58618164 -0.08520508 C40.83310287 -0.09239059 42.08002411 -0.09957611 43.36473083 -0.10697937 C45.09651329 -0.10236443 45.09651329 -0.10236443 46.86328125 -0.09765625 C48.38978554 -0.09979378 48.38978554 -0.09979378 49.9471283 -0.10197449 C52.49633789 0.14526367 52.49633789 0.14526367 55.49633789 2.14526367 C55.88679789 5.20386699 56.14130341 7.2280984 54.32397461 9.81240845 C51.78206709 11.66616564 50.00954328 11.52608361 46.87915039 11.53344727 C45.72785645 11.54290375 44.5765625 11.55236023 43.39038086 11.56210327 C42.14659668 11.55603058 40.9028125 11.54995789 39.62133789 11.54370117 C38.34532715 11.54657135 37.06931641 11.54944153 35.75463867 11.55239868 C33.05429673 11.55444202 30.35476708 11.55039759 27.65454102 11.53637695 C24.19414559 11.51928456 20.73444818 11.52912675 17.27407837 11.54709435 C13.97313983 11.56054383 10.67228553 11.55112612 7.37133789 11.54370117 C5.50566162 11.55281021 5.50566162 11.55281021 3.60229492 11.56210327 C1.875354 11.54791855 1.875354 11.54791855 0.11352539 11.53344727 C-0.90112793 11.53106049 -1.91578125 11.52867371 -2.96118164 11.5262146 C-5.50366211 11.14526367 -5.50366211 11.14526367 -7.36645508 9.8475647 C-8.50366211 8.14526367 -8.50366211 8.14526367 -8.31616211 4.52026367 C-8.04803711 3.40651367 -7.77991211 2.29276367 -7.50366211 1.14526367 C-4.88309976 -0.1650175 -2.93463272 0.0110006 0 0 Z " fill="#E87F21" transform="translate(165.503662109375,359.854736328125)"/>
<path d="M0 0 C1.03124496 -0.00953201 2.06248993 -0.01906403 3.12498474 -0.02888489 C4.80153893 -0.02751778 4.80153893 -0.02751778 6.51196289 -0.02612305 C8.22833702 -0.03255074 8.22833702 -0.03255074 9.97938538 -0.03910828 C12.40291684 -0.04485963 14.82646558 -0.04534594 17.25 -0.04101562 C20.96587481 -0.03785773 24.68095237 -0.0612987 28.39672852 -0.08666992 C30.74763897 -0.08894296 33.09855156 -0.08964639 35.44946289 -0.08862305 C37.12298073 -0.10243767 37.12298073 -0.10243767 38.83030701 -0.11653137 C40.38190269 -0.10718819 40.38190269 -0.10718819 41.96484375 -0.09765625 C42.87592392 -0.09828568 43.78700409 -0.0989151 44.72569275 -0.0995636 C47.04711914 0.2746582 47.04711914 0.2746582 48.87257385 1.60652161 C50.04711914 3.2746582 50.04711914 3.2746582 49.92211914 6.3371582 C49.04711914 9.2746582 49.04711914 9.2746582 46.04711914 11.2746582 C43.80834961 11.53535461 43.80834961 11.53535461 41.16430664 11.54931641 C40.17317871 11.55884842 39.18205078 11.56838043 38.16088867 11.57820129 C37.09209473 11.57728989 36.02330078 11.57637848 34.92211914 11.57543945 C33.27445557 11.58186714 33.27445557 11.58186714 31.59350586 11.58842468 C29.27010793 11.59417005 26.94669201 11.59466673 24.62329102 11.59033203 C21.06113148 11.58717064 17.49980102 11.61063449 13.93774414 11.63598633 C11.68253686 11.63825908 9.42732734 11.63896293 7.17211914 11.63793945 C5.56892822 11.65175407 5.56892822 11.65175407 3.93334961 11.66584778 C2.44665771 11.65650459 2.44665771 11.65650459 0.92993164 11.64697266 C-0.37886963 11.64791679 -0.37886963 11.64791679 -1.71411133 11.64888 C-4.44571072 11.19227917 -5.33606385 10.49564843 -6.95288086 8.2746582 C-7.26538086 5.2121582 -7.26538086 5.2121582 -6.95288086 2.2746582 C-4.41526405 -0.26295861 -3.51695283 0.017801 0 0 Z " fill="#E88122" transform="translate(163.952880859375,413.725341796875)"/>
<path d="M0 0 C0.99112793 -0.00945648 1.98225586 -0.01891296 3.00341797 -0.02865601 C4.07221191 -0.02258331 5.14100586 -0.01651062 6.2421875 -0.01025391 C7.34062988 -0.01312408 8.43907227 -0.01599426 9.57080078 -0.01895142 C11.89421097 -0.02099377 14.21763828 -0.01545204 16.54101562 -0.00292969 C20.10325462 0.01312082 23.66435892 -0.00277338 27.2265625 -0.02197266 C29.48177335 -0.01999026 31.73698348 -0.01614665 33.9921875 -0.01025391 C35.06098145 -0.0163266 36.12977539 -0.02239929 37.23095703 -0.02865601 C38.71764893 -0.01447128 38.71764893 -0.01447128 40.234375 0 C41.10690918 0.00238678 41.97944336 0.00477356 42.87841797 0.00723267 C45.60717176 0.47155973 46.49739063 1.17155326 48.1171875 3.38818359 C48.4921875 6.45068359 48.4921875 6.45068359 48.1171875 9.38818359 C44.87914076 11.54688142 43.97357958 11.64309704 40.234375 11.6628418 C39.24324707 11.67237381 38.25211914 11.68190582 37.23095703 11.69172668 C36.16216309 11.69081528 35.09336914 11.68990387 33.9921875 11.68896484 C32.34452393 11.69539253 32.34452393 11.69539253 30.66357422 11.70195007 C28.34017629 11.70769544 26.01676037 11.70819213 23.69335938 11.70385742 C20.13119984 11.70069603 16.56986938 11.72415988 13.0078125 11.74951172 C10.75260522 11.75178447 8.4973957 11.75248832 6.2421875 11.75146484 C4.63899658 11.76527946 4.63899658 11.76527946 3.00341797 11.77937317 C1.51672607 11.77002998 1.51672607 11.77002998 0 11.76049805 C-1.30880127 11.76144218 -1.30880127 11.76144218 -2.64404297 11.7624054 C-5.36438914 11.30768559 -6.24980853 10.57709206 -7.8828125 8.38818359 C-8.2578125 5.88818359 -8.2578125 5.88818359 -7.8828125 3.38818359 C-5.55822843 0.27416099 -3.79198136 0.0103728 0 0 Z " fill="#E87F21" transform="translate(270.8828125,332.61181640625)"/>
<path d="M0 0 C1.12347839 0.00607269 1.12347839 0.00607269 2.26965332 0.01226807 C3.03894165 0.01035461 3.80822998 0.00844116 4.60083008 0.00646973 C6.22823412 0.00510799 7.85564902 0.00880368 9.48303223 0.01715088 C11.97855963 0.02785086 14.47336714 0.01725555 16.96887207 0.00445557 C18.54830075 0.00577716 20.12772898 0.00833956 21.70715332 0.01226807 C22.45613892 0.0082196 23.20512451 0.00417114 23.97680664 0 C29.25848089 0.04797064 29.25848089 0.04797064 31.48840332 2.27789307 C32.03499219 7.41582846 32.03499219 7.41582846 30.4317627 9.94439697 C27.49461982 11.95980833 24.52087556 11.70629342 21.08215332 11.67633057 C20.3610437 11.67920074 19.63993408 11.68207092 18.89697266 11.68502808 C17.37389337 11.68706758 15.85078782 11.68154554 14.32775879 11.66900635 C11.99659654 11.6529495 9.6671679 11.66885716 7.33605957 11.68804932 C5.85558699 11.68606686 4.3751155 11.68222314 2.89465332 11.67633057 C2.19771362 11.68240326 1.50077393 11.68847595 0.78271484 11.69473267 C-2.08547161 11.65305475 -4.05279184 11.59271618 -6.45495605 9.94439697 C-8.09167777 7.36300548 -7.82785741 5.25074389 -7.51159668 2.27789307 C-4.99454863 -0.23915498 -3.43486769 0.03119707 0 0 Z " fill="#E87F21" transform="translate(287.5115966796875,386.72210693359375)"/>
<path d="M0 0 C9.57 0 19.14 0 29 0 C27.80140525 4.79437899 25.70378352 8.43592999 23.25 12.6875 C22.81945312 13.47189453 22.38890625 14.25628906 21.9453125 15.06445312 C18.65464877 20.76400093 18.65464877 20.76400093 15.171875 22.01953125 C14.45515625 22.01308594 13.7384375 22.00664062 13 22 C9.66352501 17.05028435 6.37026907 12.07250805 3.125 7.0625 C2.52945312 6.14597656 1.93390625 5.22945313 1.3203125 4.28515625 C0 2 0 2 0 0 Z " fill="#3F3750" transform="translate(436,466)"/>
<path d="M0 0 C0.66 0.33 1.32 0.66 2 1 C-1.96 4.96 -5.92 8.92 -10 13 C-10 9.28115772 -9.1259934 8.63852271 -6.6875 5.9375 C-5.76517578 4.89916016 -5.76517578 4.89916016 -4.82421875 3.83984375 C-3 2 -3 2 0 0 Z " fill="#3A395A" transform="translate(44,29)"/>
<path d="M0 0 C0.66 0.33 1.32 0.66 2 1 C-0.97 3.97 -3.94 6.94 -7 10 C-7 6.04435836 -5.59478606 4.89133304 -3 2 C-2.01 1.34 -1.02 0.68 0 0 Z " fill="#F9AB48" transform="translate(137,318)"/>
</svg>
